<mxfile host="www.draw.io" modified="2019-11-29T03:52:01.326Z" agent="Mozilla/5.0 (Macintosh; Intel Mac OS X 10_14_6) AppleWebKit/537.36 (KHTML, like Gecko) Chrome/78.0.3904.108 Safari/537.36" etag="-O0cX2DTE37jxj8AwKAm" version="12.3.3" type="github" pages="1">
  <diagram id="UuvZh2gImsmWdG5oJ0Dx" name="Page-1">
    <mxGraphModel dx="932" dy="541" grid="0" gridSize="10" guides="1" tooltips="1" connect="1" arrows="1" fold="1" page="0" pageScale="1" pageWidth="827" pageHeight="1169" math="0" shadow="0">
      <root>
        <mxCell id="0"/>
        <mxCell id="1" parent="0"/>
        <mxCell id="6uX3jeZme9aKqaOHVWeq-3" style="edgeStyle=orthogonalEdgeStyle;rounded=0;orthogonalLoop=1;jettySize=auto;html=1;exitX=1;exitY=0.5;exitDx=0;exitDy=0;entryX=0;entryY=0.5;entryDx=0;entryDy=0;" edge="1" parent="1" source="6uX3jeZme9aKqaOHVWeq-1" target="6uX3jeZme9aKqaOHVWeq-2">
          <mxGeometry relative="1" as="geometry"/>
        </mxCell>
        <mxCell id="6uX3jeZme9aKqaOHVWeq-1" value="client" style="rounded=1;whiteSpace=wrap;html=1;" vertex="1" parent="1">
          <mxGeometry x="80" y="140" width="120" height="60" as="geometry"/>
        </mxCell>
        <mxCell id="6uX3jeZme9aKqaOHVWeq-2" value="server" style="rounded=1;whiteSpace=wrap;html=1;" vertex="1" parent="1">
          <mxGeometry x="460" y="140" width="120" height="60" as="geometry"/>
        </mxCell>
        <mxCell id="6uX3jeZme9aKqaOHVWeq-4" value="amount=3&amp;amp;orderId=11&amp;amp;sign=xxx" style="text;html=1;align=center;verticalAlign=middle;resizable=0;points=[];;autosize=1;" vertex="1" parent="1">
          <mxGeometry x="225" y="140" width="190" height="20" as="geometry"/>
        </mxCell>
        <mxCell id="6uX3jeZme9aKqaOHVWeq-5" value="这里的sign就是根据请求参数amount=3&amp;amp;orderId=11这个串生成的，显然这个串里值被人改过的话，需要重新生成sign&lt;br&gt;但是sign是需要privateKey(私钥)才能生成，" style="text;html=1;align=center;verticalAlign=middle;resizable=0;points=[];;autosize=1;" vertex="1" parent="1">
          <mxGeometry x="160" y="65" width="630" height="30" as="geometry"/>
        </mxCell>
        <mxCell id="6uX3jeZme9aKqaOHVWeq-8" style="edgeStyle=none;rounded=0;orthogonalLoop=1;jettySize=auto;html=1;exitX=0.5;exitY=0;exitDx=0;exitDy=0;entryX=0.5;entryY=1;entryDx=0;entryDy=0;" edge="1" parent="1" source="6uX3jeZme9aKqaOHVWeq-6" target="6uX3jeZme9aKqaOHVWeq-2">
          <mxGeometry relative="1" as="geometry"/>
        </mxCell>
        <mxCell id="6uX3jeZme9aKqaOHVWeq-6" value="中间人，黑客服务" style="rounded=1;whiteSpace=wrap;html=1;" vertex="1" parent="1">
          <mxGeometry x="270" y="320" width="120" height="60" as="geometry"/>
        </mxCell>
        <mxCell id="6uX3jeZme9aKqaOHVWeq-9" value="" style="endArrow=classic;html=1;" edge="1" parent="1">
          <mxGeometry width="50" height="50" relative="1" as="geometry">
            <mxPoint x="240" y="180" as="sourcePoint"/>
            <mxPoint x="320" y="310" as="targetPoint"/>
          </mxGeometry>
        </mxCell>
        <mxCell id="6uX3jeZme9aKqaOHVWeq-10" value="中间人拦截请求并篡改参数，比如他把订单号改成自己的，但由于黑客没有私钥，所以他没法生成新签名" style="text;html=1;align=center;verticalAlign=middle;resizable=0;points=[];;autosize=1;" vertex="1" parent="1">
          <mxGeometry x="65" y="240" width="570" height="20" as="geometry"/>
        </mxCell>
        <mxCell id="6uX3jeZme9aKqaOHVWeq-11" value="amount=3&amp;amp;orderId=21&amp;amp;sign=xxx" style="text;html=1;align=center;verticalAlign=middle;resizable=0;points=[];;autosize=1;" vertex="1" parent="1">
          <mxGeometry x="400" y="270" width="190" height="20" as="geometry"/>
        </mxCell>
        <mxCell id="6uX3jeZme9aKqaOHVWeq-16" value="服务端验证签名，签名验证失败，拒绝请求" style="text;html=1;align=center;verticalAlign=middle;resizable=0;points=[];;autosize=1;" vertex="1" parent="1">
          <mxGeometry x="587" y="157.5" width="240" height="20" as="geometry"/>
        </mxCell>
      </root>
    </mxGraphModel>
  </diagram>
</mxfile>
